<svg width="1180" height="1034" viewBox="0 0 1180 1034" fill="none" xmlns="http://www.w3.org/2000/svg">
<g filter="url(#filter0_f_82_430)">
<g filter="url(#filter1_f_82_430)">
<path d="M722.428 294.7C722.428 294.7 725.286 441.263 756.106 472.083C786.927 502.903 941.584 505.762 941.584 505.762C941.584 505.762 786.927 508.621 756.106 539.441C725.286 570.261 722.428 711.843 722.428 711.843C722.428 711.843 719.569 570.261 688.749 539.441C657.929 508.621 496.423 505.762 496.423 505.762C496.423 505.762 657.929 502.903 688.749 472.083C719.569 441.263 722.428 294.7 722.428 294.7Z" fill="white" fill-opacity="0.28"/>
<path d="M722.428 294.7C722.428 294.7 725.286 441.263 756.106 472.083C786.927 502.903 941.584 505.762 941.584 505.762C941.584 505.762 786.927 508.621 756.106 539.441C725.286 570.261 722.428 711.843 722.428 711.843C722.428 711.843 719.569 570.261 688.749 539.441C657.929 508.621 496.423 505.762 496.423 505.762C496.423 505.762 657.929 502.903 688.749 472.083C719.569 441.263 722.428 294.7 722.428 294.7Z" fill="white" fill-opacity="0.28"/>
</g>
<g filter="url(#filter2_f_82_430)">
<path d="M1003.84 297.19C1003.84 297.19 1006.7 443.753 1037.52 474.574C1068.34 505.394 1223 508.252 1223 508.252C1223 508.252 1068.34 511.111 1037.52 541.931C1006.7 572.751 1003.84 714.334 1003.84 714.334C1003.84 714.334 1000.99 572.751 970.166 541.931C939.346 511.111 777.84 508.252 777.84 508.252C777.84 508.252 939.346 505.394 970.166 474.574C1000.99 443.753 1003.84 297.19 1003.84 297.19Z" fill="white" fill-opacity="0.28"/>
<path d="M1003.84 297.19C1003.84 297.19 1006.7 443.753 1037.52 474.574C1068.34 505.394 1223 508.252 1223 508.252C1223 508.252 1068.34 511.111 1037.52 541.931C1006.7 572.751 1003.84 714.334 1003.84 714.334C1003.84 714.334 1000.99 572.751 970.166 541.931C939.346 511.111 777.84 508.252 777.84 508.252C777.84 508.252 939.346 505.394 970.166 474.574C1000.99 443.753 1003.84 297.19 1003.84 297.19Z" fill="white" fill-opacity="0.28"/>
</g>
<g filter="url(#filter3_f_82_430)">
<path d="M802.82 94.2219C802.82 94.2219 804.963 204.035 828.068 227.127C851.172 250.219 967.111 252.361 967.111 252.361C967.111 252.361 851.172 254.503 828.068 277.595C804.963 300.687 802.82 406.768 802.82 406.768C802.82 406.768 800.677 300.687 777.573 277.595C754.469 254.503 633.396 252.361 633.396 252.361C633.396 252.361 754.469 250.219 777.573 227.127C800.677 204.035 802.82 94.2219 802.82 94.2219Z" fill="white" fill-opacity="0.28"/>
<path d="M802.82 94.2219C802.82 94.2219 804.963 204.035 828.068 227.127C851.172 250.219 967.111 252.361 967.111 252.361C967.111 252.361 851.172 254.503 828.068 277.595C804.963 300.687 802.82 406.768 802.82 406.768C802.82 406.768 800.677 300.687 777.573 277.595C754.469 254.503 633.396 252.361 633.396 252.361C633.396 252.361 754.469 250.219 777.573 227.127C800.677 204.035 802.82 94.2219 802.82 94.2219Z" fill="white" fill-opacity="0.28"/>
</g>
<g filter="url(#filter4_f_82_430)">
<path d="M722.428 319.604C722.428 319.604 725.286 466.167 756.106 496.987C786.927 527.807 941.584 530.666 941.584 530.666C941.584 530.666 786.927 533.525 756.106 564.345C725.286 595.165 722.428 736.748 722.428 736.748C722.428 736.748 719.569 595.165 688.749 564.345C657.929 533.525 496.423 530.666 496.423 530.666C496.423 530.666 657.929 527.807 688.749 496.987C719.569 466.167 722.428 319.604 722.428 319.604Z" fill="white" fill-opacity="0.28"/>
<path d="M722.428 319.604C722.428 319.604 725.286 466.167 756.106 496.987C786.927 527.807 941.584 530.666 941.584 530.666C941.584 530.666 786.927 533.525 756.106 564.345C725.286 595.165 722.428 736.748 722.428 736.748C722.428 736.748 719.569 595.165 688.749 564.345C657.929 533.525 496.423 530.666 496.423 530.666C496.423 530.666 657.929 527.807 688.749 496.987C719.569 466.167 722.428 319.604 722.428 319.604Z" fill="white" fill-opacity="0.28"/>
</g>
<g filter="url(#filter5_f_82_430)">
<path d="M722.428 528.798C722.428 528.798 725.286 675.362 756.106 706.182C786.927 737.002 941.584 739.861 941.584 739.861C941.584 739.861 786.927 742.719 756.106 773.54C725.286 804.36 722.428 945.942 722.428 945.942C722.428 945.942 719.569 804.36 688.749 773.54C657.929 742.719 496.423 739.861 496.423 739.861C496.423 739.861 657.929 737.002 688.749 706.182C719.569 675.362 722.428 528.798 722.428 528.798Z" fill="white"/>
</g>
<g filter="url(#filter6_f_82_430)">
<path d="M859.4 421.711C859.4 421.711 862.259 568.274 893.079 599.094C923.899 629.914 1078.56 632.773 1078.56 632.773C1078.56 632.773 923.899 635.632 893.079 666.452C862.259 697.272 859.4 838.854 859.4 838.854C859.4 838.854 856.542 697.272 825.722 666.452C794.902 635.632 633.396 632.773 633.396 632.773C633.396 632.773 794.902 629.914 825.722 599.094C856.542 568.274 859.4 421.711 859.4 421.711Z" fill="white" fill-opacity="0.91"/>
</g>
<g filter="url(#filter7_f_82_430)">
<path d="M722.428 212.516C722.428 212.516 725.286 359.08 756.106 389.9C786.927 420.72 941.584 423.579 941.584 423.579C941.584 423.579 786.927 426.437 756.106 457.257C725.286 488.077 722.428 629.66 722.428 629.66C722.428 629.66 719.569 488.078 688.749 457.257C657.929 426.437 496.423 423.579 496.423 423.579C496.423 423.579 657.929 420.72 688.749 389.9C719.569 359.08 722.428 212.516 722.428 212.516Z" fill="white" fill-opacity="0.28"/>
<path d="M722.428 212.516C722.428 212.516 725.286 359.08 756.106 389.9C786.927 420.72 941.584 423.579 941.584 423.579C941.584 423.579 786.927 426.437 756.106 457.257C725.286 488.077 722.428 629.66 722.428 629.66C722.428 629.66 719.569 488.078 688.749 457.257C657.929 426.437 496.423 423.579 496.423 423.579C496.423 423.579 657.929 420.72 688.749 389.9C719.569 359.08 722.428 212.516 722.428 212.516Z" fill="white" fill-opacity="0.28"/>
</g>
<g filter="url(#filter8_f_82_430)">
<path d="M624.057 332.056C624.057 332.056 626.916 478.619 657.736 509.439C688.556 540.259 843.213 543.118 843.213 543.118C843.213 543.118 688.556 545.977 657.736 576.797C626.916 607.617 624.057 749.2 624.057 749.2C624.057 749.2 621.198 607.617 590.378 576.797C559.558 545.977 398.052 543.118 398.052 543.118C398.052 543.118 559.558 540.259 590.378 509.439C621.198 478.619 624.057 332.056 624.057 332.056Z" fill="white" fill-opacity="0.28"/>
<path d="M624.057 332.056C624.057 332.056 626.916 478.619 657.736 509.439C688.556 540.259 843.213 543.118 843.213 543.118C843.213 543.118 688.556 545.977 657.736 576.797C626.916 607.617 624.057 749.2 624.057 749.2C624.057 749.2 621.198 607.617 590.378 576.797C559.558 545.977 398.052 543.118 398.052 543.118C398.052 543.118 559.558 540.259 590.378 509.439C621.198 478.619 624.057 332.056 624.057 332.056Z" fill="white" fill-opacity="0.28"/>
</g>
<g filter="url(#filter9_f_82_430)">
<path d="M759.736 640.867C759.736 640.867 761.776 745.43 783.759 767.418C805.743 789.406 916.058 791.446 916.058 791.446C916.058 791.446 805.743 793.485 783.759 815.473C761.776 837.461 759.736 938.471 759.736 938.471C759.736 938.471 757.697 837.461 735.714 815.473C713.73 793.485 598.53 791.446 598.53 791.446C598.53 791.446 713.73 789.406 735.714 767.418C757.697 745.43 759.736 640.867 759.736 640.867Z" fill="white" fill-opacity="0.28"/>
<path d="M759.736 640.867C759.736 640.867 761.776 745.43 783.759 767.418C805.743 789.406 916.058 791.446 916.058 791.446C916.058 791.446 805.743 793.485 783.759 815.473C761.776 837.461 759.736 938.471 759.736 938.471C759.736 938.471 757.697 837.461 735.714 815.473C713.73 793.485 598.53 791.446 598.53 791.446C598.53 791.446 713.73 789.406 735.714 767.418C757.697 745.43 759.736 640.867 759.736 640.867Z" fill="white" fill-opacity="0.28"/>
</g>
<g filter="url(#filter10_f_82_430)">
<path d="M759.736 640.867C759.736 640.867 761.776 745.43 783.759 767.418C805.743 789.406 916.058 791.446 916.058 791.446C916.058 791.446 805.743 793.485 783.759 815.473C761.776 837.461 759.736 938.471 759.736 938.471C759.736 938.471 757.697 837.461 735.714 815.473C713.73 793.485 598.53 791.446 598.53 791.446C598.53 791.446 713.73 789.406 735.714 767.418C757.697 745.43 759.736 640.867 759.736 640.867Z" fill="white" fill-opacity="0.28"/>
<path d="M759.736 640.867C759.736 640.867 761.776 745.43 783.759 767.418C805.743 789.406 916.058 791.446 916.058 791.446C916.058 791.446 805.743 793.485 783.759 815.473C761.776 837.461 759.736 938.471 759.736 938.471C759.736 938.471 757.697 837.461 735.714 815.473C713.73 793.485 598.53 791.446 598.53 791.446C598.53 791.446 713.73 789.406 735.714 767.418C757.697 745.43 759.736 640.867 759.736 640.867Z" fill="white" fill-opacity="0.28"/>
</g>
<g filter="url(#filter11_f_82_430)">
<path d="M759.736 22C759.736 22 761.776 126.563 783.759 148.551C805.743 170.539 916.058 172.579 916.058 172.579C916.058 172.579 805.743 174.618 783.759 196.606C761.776 218.594 759.736 319.604 759.736 319.604C759.736 319.604 757.697 218.594 735.714 196.606C713.73 174.618 598.53 172.579 598.53 172.579C598.53 172.579 713.73 170.539 735.714 148.551C757.697 126.563 759.736 22 759.736 22Z" fill="white" fill-opacity="0.28"/>
<path d="M759.736 22C759.736 22 761.776 126.563 783.759 148.551C805.743 170.539 916.058 172.579 916.058 172.579C916.058 172.579 805.743 174.618 783.759 196.606C761.776 218.594 759.736 319.604 759.736 319.604C759.736 319.604 757.697 218.594 735.714 196.606C713.73 174.618 598.53 172.579 598.53 172.579C598.53 172.579 713.73 170.539 735.714 148.551C757.697 126.563 759.736 22 759.736 22Z" fill="white" fill-opacity="0.28"/>
</g>
<g filter="url(#filter12_f_82_430)">
<path d="M845.655 22C845.655 22 847.694 126.563 869.678 148.551C891.661 170.539 1001.98 172.579 1001.98 172.579C1001.98 172.579 891.661 174.618 869.678 196.606C847.694 218.594 845.655 319.604 845.655 319.604C845.655 319.604 843.616 218.594 821.633 196.606C799.649 174.618 684.449 172.579 684.449 172.579C684.449 172.579 799.649 170.539 821.633 148.551C843.616 126.563 845.655 22 845.655 22Z" fill="white" fill-opacity="0.28"/>
<path d="M845.655 22C845.655 22 847.694 126.563 869.678 148.551C891.661 170.539 1001.98 172.579 1001.98 172.579C1001.98 172.579 891.661 174.618 869.678 196.606C847.694 218.594 845.655 319.604 845.655 319.604C845.655 319.604 843.616 218.594 821.633 196.606C799.649 174.618 684.449 172.579 684.449 172.579C684.449 172.579 799.649 170.539 821.633 148.551C843.616 126.563 845.655 22 845.655 22Z" fill="white" fill-opacity="0.28"/>
</g>
<g filter="url(#filter13_f_82_430)">
<path d="M906.67 22C906.67 22 908.709 126.563 930.693 148.551C952.676 170.539 1062.99 172.579 1062.99 172.579C1062.99 172.579 952.676 174.618 930.693 196.606C908.709 218.594 906.67 319.604 906.67 319.604C906.67 319.604 904.631 218.594 882.647 196.606C860.664 174.618 745.464 172.579 745.464 172.579C745.464 172.579 860.664 170.539 882.647 148.551C904.631 126.563 906.67 22 906.67 22Z" fill="white" fill-opacity="0.28"/>
<path d="M906.67 22C906.67 22 908.709 126.563 930.693 148.551C952.676 170.539 1062.99 172.579 1062.99 172.579C1062.99 172.579 952.676 174.618 930.693 196.606C908.709 218.594 906.67 319.604 906.67 319.604C906.67 319.604 904.631 218.594 882.647 196.606C860.664 174.618 745.464 172.579 745.464 172.579C745.464 172.579 860.664 170.539 882.647 148.551C904.631 126.563 906.67 22 906.67 22Z" fill="white" fill-opacity="0.28"/>
</g>
<g filter="url(#filter14_f_82_430)">
<path d="M794.602 273.531C794.602 273.531 796.641 378.095 818.625 400.083C840.608 422.071 950.923 424.11 950.923 424.11C950.923 424.11 840.608 426.15 818.625 448.138C796.641 470.126 794.602 571.135 794.602 571.135C794.602 571.135 792.563 470.126 770.579 448.138C748.596 426.15 633.396 424.11 633.396 424.11C633.396 424.11 748.596 422.071 770.579 400.083C792.563 378.095 794.602 273.531 794.602 273.531Z" fill="white" fill-opacity="0.28"/>
<path d="M794.602 273.531C794.602 273.531 796.641 378.095 818.625 400.083C840.608 422.071 950.923 424.11 950.923 424.11C950.923 424.11 840.608 426.15 818.625 448.138C796.641 470.126 794.602 571.135 794.602 571.135C794.602 571.135 792.563 470.126 770.579 448.138C748.596 426.15 633.396 424.11 633.396 424.11C633.396 424.11 748.596 422.071 770.579 400.083C792.563 378.095 794.602 273.531 794.602 273.531Z" fill="white" fill-opacity="0.28"/>
</g>
<g filter="url(#filter15_f_82_430)">
<path d="M378.704 588.568C378.704 588.568 380.743 693.131 402.726 715.119C424.71 737.107 535.025 739.147 535.025 739.147C535.025 739.147 424.71 741.186 402.726 763.174C380.743 785.162 378.704 886.172 378.704 886.172C378.704 886.172 376.665 785.162 354.681 763.174C332.698 741.186 217.498 739.147 217.498 739.147C217.498 739.147 332.698 737.107 354.681 715.119C376.665 693.131 378.704 588.568 378.704 588.568Z" fill="white" fill-opacity="0.28"/>
<path d="M378.704 588.568C378.704 588.568 380.743 693.131 402.726 715.119C424.71 737.107 535.025 739.147 535.025 739.147C535.025 739.147 424.71 741.186 402.726 763.174C380.743 785.162 378.704 886.172 378.704 886.172C378.704 886.172 376.665 785.162 354.681 763.174C332.698 741.186 217.498 739.147 217.498 739.147C217.498 739.147 332.698 737.107 354.681 715.119C376.665 693.131 378.704 588.568 378.704 588.568Z" fill="white" fill-opacity="0.28"/>
</g>
<g filter="url(#filter16_f_82_430)">
<path d="M183.206 94.2219C183.206 94.2219 185.245 198.785 207.229 220.773C229.212 242.761 339.527 244.801 339.527 244.801C339.527 244.801 229.212 246.84 207.229 268.828C185.245 290.816 183.206 391.826 183.206 391.826C183.206 391.826 181.167 290.816 159.183 268.828C137.2 246.84 22 244.801 22 244.801C22 244.801 137.2 242.761 159.183 220.773C181.167 198.785 183.206 94.2219 183.206 94.2219Z" fill="white" fill-opacity="0.28"/>
<path d="M183.206 94.2219C183.206 94.2219 185.245 198.785 207.229 220.773C229.212 242.761 339.527 244.801 339.527 244.801C339.527 244.801 229.212 246.84 207.229 268.828C185.245 290.816 183.206 391.826 183.206 391.826C183.206 391.826 181.167 290.816 159.183 268.828C137.2 246.84 22 244.801 22 244.801C22 244.801 137.2 242.761 159.183 220.773C181.167 198.785 183.206 94.2219 183.206 94.2219Z" fill="white" fill-opacity="0.28"/>
</g>
<g filter="url(#filter17_f_82_430)">
<path d="M310.064 165.198C310.064 165.198 312.495 289.887 338.702 316.107C364.91 342.327 496.423 344.759 496.423 344.759C496.423 344.759 364.91 347.191 338.702 373.411C312.495 399.631 310.064 520.082 310.064 520.082C310.064 520.082 307.633 399.631 281.425 373.411C255.217 347.191 117.881 344.759 117.881 344.759C117.881 344.759 255.217 342.327 281.425 316.107C307.633 289.887 310.064 165.198 310.064 165.198Z" fill="white" fill-opacity="0.9"/>
</g>
<g filter="url(#filter18_f_82_430)">
<path d="M442.209 594.794C442.209 594.794 444.248 699.357 466.231 721.345C488.215 743.333 598.53 745.373 598.53 745.373C598.53 745.373 488.215 747.413 466.231 769.401C444.248 791.389 442.209 892.398 442.209 892.398C442.209 892.398 440.17 791.389 418.186 769.401C396.203 747.413 281.003 745.373 281.003 745.373C281.003 745.373 396.203 743.333 418.186 721.345C440.17 699.357 442.209 594.794 442.209 594.794Z" fill="white" fill-opacity="0.28"/>
<path d="M442.209 594.794C442.209 594.794 444.248 699.357 466.231 721.345C488.215 743.333 598.53 745.373 598.53 745.373C598.53 745.373 488.215 747.413 466.231 769.401C444.248 791.389 442.209 892.398 442.209 892.398C442.209 892.398 440.17 791.389 418.186 769.401C396.203 747.413 281.003 745.373 281.003 745.373C281.003 745.373 396.203 743.333 418.186 721.345C440.17 699.357 442.209 594.794 442.209 594.794Z" fill="white" fill-opacity="0.28"/>
</g>
<g filter="url(#filter19_f_82_430)">
<path d="M528.128 714.334C528.128 714.334 530.167 818.897 552.15 840.885C574.134 862.873 684.449 864.913 684.449 864.913C684.449 864.913 574.134 866.952 552.15 888.94C530.167 910.928 528.128 1011.94 528.128 1011.94C528.128 1011.94 526.088 910.928 504.105 888.94C482.121 866.952 366.921 864.913 366.921 864.913C366.921 864.913 482.121 862.873 504.105 840.885C526.088 818.897 528.128 714.334 528.128 714.334Z" fill="white" fill-opacity="0.28"/>
<path d="M528.128 714.334C528.128 714.334 530.167 818.897 552.15 840.885C574.134 862.873 684.449 864.913 684.449 864.913C684.449 864.913 574.134 866.952 552.15 888.94C530.167 910.928 528.128 1011.94 528.128 1011.94C528.128 1011.94 526.088 910.928 504.105 888.94C482.121 866.952 366.921 864.913 366.921 864.913C366.921 864.913 482.121 862.873 504.105 840.885C526.088 818.897 528.128 714.334 528.128 714.334Z" fill="white" fill-opacity="0.28"/>
</g>
<g filter="url(#filter20_f_82_430)">
<path d="M1017.49 146.521C1017.49 146.521 1019.53 251.084 1041.52 273.072C1063.5 295.06 1173.81 297.099 1173.81 297.099C1173.81 297.099 1063.5 299.139 1041.52 321.127C1019.53 343.115 1017.49 444.125 1017.49 444.125C1017.49 444.125 1015.45 343.115 993.471 321.127C971.487 299.139 856.287 297.099 856.287 297.099C856.287 297.099 971.487 295.06 993.471 273.072C1015.45 251.084 1017.49 146.521 1017.49 146.521Z" fill="white" fill-opacity="0.28"/>
<path d="M1017.49 146.521C1017.49 146.521 1019.53 251.084 1041.52 273.072C1063.5 295.06 1173.81 297.099 1173.81 297.099C1173.81 297.099 1063.5 299.139 1041.52 321.127C1019.53 343.115 1017.49 444.125 1017.49 444.125C1017.49 444.125 1015.45 343.115 993.471 321.127C971.487 299.139 856.287 297.099 856.287 297.099C856.287 297.099 971.487 295.06 993.471 273.072C1015.45 251.084 1017.49 146.521 1017.49 146.521Z" fill="white" fill-opacity="0.28"/>
</g>
<g filter="url(#filter21_f_82_430)">
<path d="M601.643 353.224C601.643 353.224 604.502 499.788 635.322 530.608C666.142 561.428 820.799 564.287 820.799 564.287C820.799 564.287 666.142 567.146 635.322 597.966C604.502 628.786 601.643 770.368 601.643 770.368C601.643 770.368 598.784 628.786 567.964 597.966C537.144 567.146 375.638 564.287 375.638 564.287C375.638 564.287 537.144 561.428 567.964 530.608C598.784 499.788 601.643 353.224 601.643 353.224Z" fill="white" fill-opacity="0.28"/>
<path d="M601.643 353.224C601.643 353.224 604.502 499.788 635.322 530.608C666.142 561.428 820.799 564.287 820.799 564.287C820.799 564.287 666.142 567.146 635.322 597.966C604.502 628.786 601.643 770.368 601.643 770.368C601.643 770.368 598.784 628.786 567.964 597.966C537.144 567.146 375.638 564.287 375.638 564.287C375.638 564.287 537.144 561.428 567.964 530.608C598.784 499.788 601.643 353.224 601.643 353.224Z" fill="white" fill-opacity="0.28"/>
</g>
</g>
<defs>
<filter id="filter0_f_82_430" x="0.831514" y="0.831514" width="1243.34" height="1032.27" filterUnits="userSpaceOnUse" color-interpolation-filters="sRGB">
<feFlood flood-opacity="0" result="BackgroundImageFix"/>
<feBlend mode="normal" in="SourceGraphic" in2="BackgroundImageFix" result="shape"/>
<feGaussianBlur stdDeviation="10.5842" result="effect1_foregroundBlur_82_430"/>
</filter>
<filter id="filter1_f_82_430" x="482.726" y="281.003" width="472.555" height="444.538" filterUnits="userSpaceOnUse" color-interpolation-filters="sRGB">
<feFlood flood-opacity="0" result="BackgroundImageFix"/>
<feBlend mode="normal" in="SourceGraphic" in2="BackgroundImageFix" result="shape"/>
<feGaussianBlur stdDeviation="6.84863" result="effect1_foregroundBlur_82_430"/>
</filter>
<filter id="filter2_f_82_430" x="764.143" y="283.493" width="472.555" height="444.538" filterUnits="userSpaceOnUse" color-interpolation-filters="sRGB">
<feFlood flood-opacity="0" result="BackgroundImageFix"/>
<feBlend mode="normal" in="SourceGraphic" in2="BackgroundImageFix" result="shape"/>
<feGaussianBlur stdDeviation="6.84863" result="effect1_foregroundBlur_82_430"/>
</filter>
<filter id="filter3_f_82_430" x="619.698" y="80.5246" width="361.109" height="339.941" filterUnits="userSpaceOnUse" color-interpolation-filters="sRGB">
<feFlood flood-opacity="0" result="BackgroundImageFix"/>
<feBlend mode="normal" in="SourceGraphic" in2="BackgroundImageFix" result="shape"/>
<feGaussianBlur stdDeviation="6.84863" result="effect1_foregroundBlur_82_430"/>
</filter>
<filter id="filter4_f_82_430" x="482.726" y="305.907" width="472.555" height="444.538" filterUnits="userSpaceOnUse" color-interpolation-filters="sRGB">
<feFlood flood-opacity="0" result="BackgroundImageFix"/>
<feBlend mode="normal" in="SourceGraphic" in2="BackgroundImageFix" result="shape"/>
<feGaussianBlur stdDeviation="6.84863" result="effect1_foregroundBlur_82_430"/>
</filter>
<filter id="filter5_f_82_430" x="482.726" y="515.101" width="472.555" height="444.538" filterUnits="userSpaceOnUse" color-interpolation-filters="sRGB">
<feFlood flood-opacity="0" result="BackgroundImageFix"/>
<feBlend mode="normal" in="SourceGraphic" in2="BackgroundImageFix" result="shape"/>
<feGaussianBlur stdDeviation="6.84863" result="effect1_foregroundBlur_82_430"/>
</filter>
<filter id="filter6_f_82_430" x="619.698" y="408.013" width="472.555" height="444.538" filterUnits="userSpaceOnUse" color-interpolation-filters="sRGB">
<feFlood flood-opacity="0" result="BackgroundImageFix"/>
<feBlend mode="normal" in="SourceGraphic" in2="BackgroundImageFix" result="shape"/>
<feGaussianBlur stdDeviation="6.84863" result="effect1_foregroundBlur_82_430"/>
</filter>
<filter id="filter7_f_82_430" x="482.726" y="198.819" width="472.555" height="444.538" filterUnits="userSpaceOnUse" color-interpolation-filters="sRGB">
<feFlood flood-opacity="0" result="BackgroundImageFix"/>
<feBlend mode="normal" in="SourceGraphic" in2="BackgroundImageFix" result="shape"/>
<feGaussianBlur stdDeviation="6.84863" result="effect1_foregroundBlur_82_430"/>
</filter>
<filter id="filter8_f_82_430" x="384.355" y="318.359" width="472.555" height="444.538" filterUnits="userSpaceOnUse" color-interpolation-filters="sRGB">
<feFlood flood-opacity="0" result="BackgroundImageFix"/>
<feBlend mode="normal" in="SourceGraphic" in2="BackgroundImageFix" result="shape"/>
<feGaussianBlur stdDeviation="6.84863" result="effect1_foregroundBlur_82_430"/>
</filter>
<filter id="filter9_f_82_430" x="584.833" y="627.17" width="344.922" height="324.998" filterUnits="userSpaceOnUse" color-interpolation-filters="sRGB">
<feFlood flood-opacity="0" result="BackgroundImageFix"/>
<feBlend mode="normal" in="SourceGraphic" in2="BackgroundImageFix" result="shape"/>
<feGaussianBlur stdDeviation="6.84863" result="effect1_foregroundBlur_82_430"/>
</filter>
<filter id="filter10_f_82_430" x="584.833" y="627.17" width="344.922" height="324.998" filterUnits="userSpaceOnUse" color-interpolation-filters="sRGB">
<feFlood flood-opacity="0" result="BackgroundImageFix"/>
<feBlend mode="normal" in="SourceGraphic" in2="BackgroundImageFix" result="shape"/>
<feGaussianBlur stdDeviation="6.84863" result="effect1_foregroundBlur_82_430"/>
</filter>
<filter id="filter11_f_82_430" x="584.833" y="8.30274" width="344.922" height="324.999" filterUnits="userSpaceOnUse" color-interpolation-filters="sRGB">
<feFlood flood-opacity="0" result="BackgroundImageFix"/>
<feBlend mode="normal" in="SourceGraphic" in2="BackgroundImageFix" result="shape"/>
<feGaussianBlur stdDeviation="6.84863" result="effect1_foregroundBlur_82_430"/>
</filter>
<filter id="filter12_f_82_430" x="670.752" y="8.30274" width="344.922" height="324.999" filterUnits="userSpaceOnUse" color-interpolation-filters="sRGB">
<feFlood flood-opacity="0" result="BackgroundImageFix"/>
<feBlend mode="normal" in="SourceGraphic" in2="BackgroundImageFix" result="shape"/>
<feGaussianBlur stdDeviation="6.84863" result="effect1_foregroundBlur_82_430"/>
</filter>
<filter id="filter13_f_82_430" x="731.767" y="8.30274" width="344.922" height="324.999" filterUnits="userSpaceOnUse" color-interpolation-filters="sRGB">
<feFlood flood-opacity="0" result="BackgroundImageFix"/>
<feBlend mode="normal" in="SourceGraphic" in2="BackgroundImageFix" result="shape"/>
<feGaussianBlur stdDeviation="6.84863" result="effect1_foregroundBlur_82_430"/>
</filter>
<filter id="filter14_f_82_430" x="619.698" y="259.834" width="344.922" height="324.999" filterUnits="userSpaceOnUse" color-interpolation-filters="sRGB">
<feFlood flood-opacity="0" result="BackgroundImageFix"/>
<feBlend mode="normal" in="SourceGraphic" in2="BackgroundImageFix" result="shape"/>
<feGaussianBlur stdDeviation="6.84863" result="effect1_foregroundBlur_82_430"/>
</filter>
<filter id="filter15_f_82_430" x="203.8" y="574.871" width="344.922" height="324.999" filterUnits="userSpaceOnUse" color-interpolation-filters="sRGB">
<feFlood flood-opacity="0" result="BackgroundImageFix"/>
<feBlend mode="normal" in="SourceGraphic" in2="BackgroundImageFix" result="shape"/>
<feGaussianBlur stdDeviation="6.84863" result="effect1_foregroundBlur_82_430"/>
</filter>
<filter id="filter16_f_82_430" x="8.30274" y="80.5246" width="344.922" height="324.999" filterUnits="userSpaceOnUse" color-interpolation-filters="sRGB">
<feFlood flood-opacity="0" result="BackgroundImageFix"/>
<feBlend mode="normal" in="SourceGraphic" in2="BackgroundImageFix" result="shape"/>
<feGaussianBlur stdDeviation="6.84863" result="effect1_foregroundBlur_82_430"/>
</filter>
<filter id="filter17_f_82_430" x="106.674" y="153.992" width="400.956" height="377.297" filterUnits="userSpaceOnUse" color-interpolation-filters="sRGB">
<feFlood flood-opacity="0" result="BackgroundImageFix"/>
<feBlend mode="normal" in="SourceGraphic" in2="BackgroundImageFix" result="shape"/>
<feGaussianBlur stdDeviation="5.60342" result="effect1_foregroundBlur_82_430"/>
</filter>
<filter id="filter18_f_82_430" x="267.305" y="581.097" width="344.922" height="324.998" filterUnits="userSpaceOnUse" color-interpolation-filters="sRGB">
<feFlood flood-opacity="0" result="BackgroundImageFix"/>
<feBlend mode="normal" in="SourceGraphic" in2="BackgroundImageFix" result="shape"/>
<feGaussianBlur stdDeviation="6.84863" result="effect1_foregroundBlur_82_430"/>
</filter>
<filter id="filter19_f_82_430" x="353.224" y="700.637" width="344.922" height="324.999" filterUnits="userSpaceOnUse" color-interpolation-filters="sRGB">
<feFlood flood-opacity="0" result="BackgroundImageFix"/>
<feBlend mode="normal" in="SourceGraphic" in2="BackgroundImageFix" result="shape"/>
<feGaussianBlur stdDeviation="6.84863" result="effect1_foregroundBlur_82_430"/>
</filter>
<filter id="filter20_f_82_430" x="842.59" y="132.823" width="344.922" height="324.999" filterUnits="userSpaceOnUse" color-interpolation-filters="sRGB">
<feFlood flood-opacity="0" result="BackgroundImageFix"/>
<feBlend mode="normal" in="SourceGraphic" in2="BackgroundImageFix" result="shape"/>
<feGaussianBlur stdDeviation="6.84863" result="effect1_foregroundBlur_82_430"/>
</filter>
<filter id="filter21_f_82_430" x="361.941" y="339.527" width="472.555" height="444.538" filterUnits="userSpaceOnUse" color-interpolation-filters="sRGB">
<feFlood flood-opacity="0" result="BackgroundImageFix"/>
<feBlend mode="normal" in="SourceGraphic" in2="BackgroundImageFix" result="shape"/>
<feGaussianBlur stdDeviation="6.84863" result="effect1_foregroundBlur_82_430"/>
</filter>
</defs>
</svg>
