<svg width="169" height="155" viewBox="0 0 169 155" fill="none" xmlns="http://www.w3.org/2000/svg">
<path fill-rule="evenodd" clip-rule="evenodd" d="M0 0V114.785H57.3927C82.1266 114.785 111.093 108.39 111.093 81.8255C111.093 61.0002 96.2557 57.3927 96.2557 57.3927C96.2557 57.3927 111.093 54.2771 111.093 30.8281C111.093 2.78764 82.1266 0 57.3927 0H0ZM31.5488 45.0282C20.7162 34.1956 19.1838 16.7263 19.1838 16.7263V98.06C19.1838 98.06 20.2209 81.086 31.5488 69.7581C42.8766 58.4303 59.8506 57.3931 59.8506 57.3931C59.8506 57.3931 42.3814 55.8608 31.5488 45.0282Z" fill="white" fill-opacity="0.8"/>
<path d="M2.07443 142.253V124.621H10.8908C12.5734 124.621 13.8872 125.024 14.8322 125.831C15.7772 126.638 16.2497 127.675 16.2497 128.942C16.2497 130.302 15.7887 131.351 14.8668 132.089C14.4058 132.434 13.9448 132.653 13.4838 132.746V132.884C14.0831 132.976 14.6593 133.207 15.2125 133.575C16.365 134.359 16.9412 135.569 16.9412 137.206C16.9412 138.635 16.3995 139.833 15.3162 140.801C14.2329 141.769 12.8154 142.253 11.0636 142.253H2.07443ZM5.70469 131.536H10.545C11.928 131.536 12.6195 130.902 12.6195 129.634C12.6195 128.481 11.928 127.905 10.545 127.905H5.70469V131.536ZM5.70469 138.969H10.8908C11.6514 138.969 12.2392 138.773 12.654 138.381C13.092 137.966 13.3109 137.413 13.3109 136.722C13.3109 136.099 13.092 135.604 12.654 135.235C12.2392 134.843 11.6514 134.647 10.8908 134.647H5.70469V138.969ZM19.6515 140.006C17.9689 138.277 17.1276 136.088 17.1276 133.437C17.1276 130.786 17.9689 128.597 19.6515 126.868C21.3341 125.139 23.4316 124.275 25.9439 124.275C28.7559 124.275 31.0493 125.347 32.8241 127.49C33.5848 128.481 34.1149 129.542 34.4145 130.671H30.6114C30.4501 130.095 30.1504 129.576 29.7125 129.115C28.8136 128.078 27.5574 127.56 25.9439 127.56C24.5149 127.56 23.3163 128.101 22.3482 129.184C21.4032 130.268 20.9307 131.685 20.9307 133.437C20.9307 135.189 21.4032 136.606 22.3482 137.69C23.3163 138.773 24.5149 139.315 25.9439 139.315C27.6035 139.315 28.9058 138.796 29.8508 137.759C30.2657 137.298 30.5768 136.779 30.7843 136.203H34.4145C34.1149 137.378 33.5848 138.45 32.8241 139.418C31.0724 141.539 28.779 142.599 25.9439 142.599C23.4316 142.599 21.3341 141.735 19.6515 140.006ZM35.2681 142.253V124.621H50.9992V142.253H47.3689V127.905H38.8983V142.253H35.2681ZM54.6708 139.972C52.919 138.197 52.0432 136.019 52.0432 133.437C52.0432 130.856 52.919 128.689 54.6708 126.937C56.4456 125.162 58.6237 124.275 61.2052 124.275C63.7868 124.275 65.9534 125.162 67.7051 126.937C69.4799 128.689 70.3673 130.856 70.3673 133.437C70.3673 136.019 69.4799 138.197 67.7051 139.972C65.9534 141.723 63.7868 142.599 61.2052 142.599C58.6237 142.599 56.4456 141.723 54.6708 139.972ZM57.333 129.184C56.3418 130.245 55.8463 131.662 55.8463 133.437C55.8463 135.212 56.3418 136.641 57.333 137.724C58.3241 138.785 59.6148 139.315 61.2052 139.315C62.7956 139.315 64.0864 138.785 65.0775 137.724C66.0686 136.641 66.5642 135.212 66.5642 133.437C66.5642 131.662 66.0686 130.245 65.0775 129.184C64.0864 128.101 62.7956 127.56 61.2052 127.56C59.6148 127.56 58.3241 128.101 57.333 129.184ZM71.3991 142.253V124.621H76.5852L81.2527 135.166H81.9442L86.6117 124.621H91.7977V142.253H88.1675V129.807L88.2021 129.461H88.0292L83.6729 139.142H79.524L75.1677 129.461H74.9948L75.0294 129.807V142.253H71.3991ZM93.8708 142.253V124.621H97.5011V136.376L97.4665 136.722H97.8122L105.799 124.621H109.775V142.253H106.145V130.498L106.179 130.153H105.833L97.8468 142.253H93.8708ZM111.852 142.253V124.621H115.482V131.708H124.126V124.621H127.756V142.253H124.126V134.993H115.482V142.253H111.852ZM131.147 140.075C129.58 138.37 128.796 136.157 128.796 133.437C128.796 130.717 129.58 128.516 131.147 126.833C132.737 125.128 134.72 124.275 137.094 124.275C138.592 124.275 139.963 124.713 141.208 125.589C141.738 125.958 142.211 126.384 142.625 126.868H142.798V124.621H146.429V142.253H142.798V139.833H142.625C142.28 140.317 141.807 140.778 141.208 141.216C139.963 142.138 138.592 142.599 137.094 142.599C134.72 142.599 132.737 141.758 131.147 140.075ZM133.982 129.081C133.06 130.095 132.599 131.547 132.599 133.437C132.599 135.327 133.06 136.779 133.982 137.793C134.904 138.808 136.172 139.315 137.785 139.315C139.306 139.315 140.516 138.808 141.415 137.793C142.337 136.756 142.798 135.304 142.798 133.437C142.798 131.57 142.337 130.13 141.415 129.115C140.516 128.078 139.306 127.56 137.785 127.56C136.172 127.56 134.904 128.067 133.982 129.081ZM148.489 142.253V124.621H152.12V136.376L152.085 136.722H152.431L160.417 124.621H164.393V142.253H160.763V130.498L160.798 130.153H160.452L152.465 142.253H148.489ZM151.082 117.706H154.021C154.021 118.974 154.828 119.608 156.441 119.608C158.055 119.608 158.862 118.974 158.862 117.706H161.8C161.8 119.066 161.339 120.161 160.417 120.99C159.519 121.797 158.193 122.201 156.441 122.201C154.69 122.201 153.353 121.797 152.431 120.99C151.532 120.161 151.082 119.066 151.082 117.706Z" fill="white" fill-opacity="0.8"/>
<path opacity="0.8" d="M13.8295 113.402H69.8392C93.9772 113.402 122.246 107.161 122.246 81.2369C122.246 60.9134 107.766 57.3928 107.766 57.3928C107.766 57.3928 122.246 54.3522 122.246 31.4683C122.246 4.10353 93.9772 1.38306 69.8392 1.38306H13.8295" stroke="white" stroke-opacity="0.8" stroke-width="1.38296"/>
<path opacity="0.7" d="M29.0421 113.402H85.0518C109.19 113.402 137.458 107.161 137.458 81.2369C137.458 60.9134 122.978 57.3928 122.978 57.3928C122.978 57.3928 137.458 54.3522 137.458 31.4683C137.458 4.10353 109.19 1.38306 85.0518 1.38306H29.0421" stroke="white" stroke-opacity="0.8" stroke-width="1.38296"/>
<path opacity="0.5" d="M44.2546 113.402H100.264C124.402 113.402 152.671 107.161 152.671 81.2369C152.671 60.9134 138.191 57.3928 138.191 57.3928C138.191 57.3928 152.671 54.3522 152.671 31.4683C152.671 4.10353 124.402 1.38306 100.264 1.38306H44.2546" stroke="white" stroke-opacity="0.8" stroke-width="1.38296"/>
<path opacity="0.2" d="M59.4671 113.402H115.477C139.615 113.402 167.883 107.161 167.883 81.2369C167.883 60.9134 153.403 57.3928 153.403 57.3928C153.403 57.3928 167.883 54.3522 167.883 31.4683C167.883 4.10353 139.615 1.38306 115.477 1.38306H59.4671" stroke="white" stroke-opacity="0.8" stroke-width="1.38296"/>
</svg>
